<?xml version="1.0" encoding="us-ascii" standalone="no"?><svg xmlns="http://www.w3.org/2000/svg" xmlns:xlink="http://www.w3.org/1999/xlink" contentStyleType="text/css" height="2384px" preserveAspectRatio="none" style="width:2160px;height:2384px;background:#FFFFFF;" version="1.1" viewBox="0 0 2160 2384" width="2160px" zoomAndPan="magnify"><defs/><g><rect fill="none" height="2381.4219" style="stroke:#1281AC;stroke-width:2.0;" width="2156" x="0" y="0"/><text fill="#000000" font-family="sans-serif" font-size="28" font-weight="bold" lengthAdjust="spacing" textLength="452" x="846" y="57.0703">Portfolio Outbound Integration</text><rect fill="#F3F3F3" height="2286.4453" style="stroke:#1281AC;stroke-width:1.0;" width="162" x="32" y="86.9766"/><text fill="#1281AC" font-family="sans-serif" font-size="26" font-weight="bold" lengthAdjust="spacing" textLength="126" x="50" y="112.1133">Backbase</text><rect fill="#F3F3F3" height="2286.4453" style="stroke:#1281AC;stroke-width:1.0;" width="354" x="1040" y="86.9766"/><text fill="#1281AC" font-family="sans-serif" font-size="26" font-weight="bold" lengthAdjust="spacing" textLength="260" x="1087" y="112.1133">Custom Integration</text><rect fill="#F3F3F3" height="2286.4453" style="stroke:#1281AC;stroke-width:1.0;" width="194" x="1900" y="86.9766"/><text fill="#1281AC" font-family="sans-serif" font-size="26" font-weight="bold" lengthAdjust="spacing" textLength="172" x="1911" y="112.1133">Drive Wealth</text><rect fill="#FFFFFF" height="524.9688" style="stroke:#000000;stroke-width:2.0;" width="20" x="1207" y="485.3672"/><rect fill="#FFFFFF" height="260.4844" style="stroke:#000000;stroke-width:2.0;" width="20" x="1207" y="1131.5781"/><rect fill="#FFFFFF" height="260.4844" style="stroke:#000000;stroke-width:2.0;" width="20" x="1207" y="1513.3047"/><rect fill="#FFFFFF" height="260.4844" style="stroke:#000000;stroke-width:2.0;" width="20" x="1207" y="1895.0313"/><rect fill="#FFFFFF" height="58.6211" style="stroke:#000000;stroke-width:2.0;" width="20" x="1987" y="592.6094"/><rect fill="#FFFFFF" height="58.6211" style="stroke:#000000;stroke-width:2.0;" width="20" x="1987" y="709.8516"/><rect fill="#FFFFFF" height="58.6211" style="stroke:#000000;stroke-width:2.0;" width="20" x="1987" y="1190.1992"/><rect fill="#FFFFFF" height="58.6211" style="stroke:#000000;stroke-width:2.0;" width="20" x="1987" y="1571.9258"/><rect fill="#FFFFFF" height="58.6211" style="stroke:#000000;stroke-width:2.0;" width="20" x="1987" y="1953.6523"/><rect fill="none" height="618.2109" style="stroke:#000000;stroke-width:3.0;" width="2106" x="20" y="408.125"/><rect fill="none" height="353.7266" style="stroke:#000000;stroke-width:3.0;" width="1078" x="1028" y="515.3672"/><rect fill="none" height="353.7266" style="stroke:#000000;stroke-width:3.0;" width="2086" x="20" y="1054.3359"/><rect fill="none" height="353.7266" style="stroke:#000000;stroke-width:3.0;" width="2086" x="20" y="1436.0625"/><rect fill="none" height="353.7266" style="stroke:#000000;stroke-width:3.0;" width="2086" x="20" y="1817.7891"/><line style="stroke:#000000;stroke-width:1.0;stroke-dasharray:5.0,5.0;" x1="112" x2="112" y1="287.5039" y2="2205.5156"/><line style="stroke:#000000;stroke-width:1.0;stroke-dasharray:5.0,5.0;" x1="1216" x2="1216" y1="287.5039" y2="2205.5156"/><line style="stroke:#000000;stroke-width:1.0;stroke-dasharray:5.0,5.0;" x1="1996" x2="1996" y1="287.5039" y2="2205.5156"/><rect fill="#E2E2F0" height="93.9531" rx="5" ry="5" style="stroke:#181818;stroke-width:1.0;" width="146" x="40" y="191.5508"/><text fill="#000000" font-family="sans-serif" font-size="28" lengthAdjust="spacing" textLength="52" x="83" y="232.6211">DBS</text><text fill="#000000" font-family="sans-serif" font-size="28" lengthAdjust="spacing" textLength="118" x="54" y="265.5977">Portfolio</text><rect fill="#E2E2F0" height="93.9531" rx="5" ry="5" style="stroke:#181818;stroke-width:1.0;" width="146" x="40" y="2203.5156"/><text fill="#000000" font-family="sans-serif" font-size="28" lengthAdjust="spacing" textLength="52" x="83" y="2244.5859">DBS</text><text fill="#000000" font-family="sans-serif" font-size="28" lengthAdjust="spacing" textLength="118" x="54" y="2277.5625">Portfolio</text><rect fill="#E2E2F0" height="159.9063" rx="5" ry="5" style="stroke:#181818;stroke-width:1.0;" width="338" x="1048" y="125.5977"/><text fill="#000000" font-family="sans-serif" font-size="28" lengthAdjust="spacing" textLength="272" x="1081" y="166.668">portfolio-outbound</text><text fill="#000000" font-family="sans-serif" font-size="28" lengthAdjust="spacing" textLength="252" x="1095" y="199.6445">trading-outbound</text><text fill="#000000" font-family="sans-serif" font-size="28" lengthAdjust="spacing" textLength="302" x="1070" y="232.6211">instrument-outbound</text><text fill="#000000" font-family="sans-serif" font-size="28" lengthAdjust="spacing" textLength="248" x="1097" y="265.5977">corporate-actions</text><rect fill="#E2E2F0" height="159.9063" rx="5" ry="5" style="stroke:#181818;stroke-width:1.0;" width="338" x="1048" y="2203.5156"/><text fill="#000000" font-family="sans-serif" font-size="28" lengthAdjust="spacing" textLength="272" x="1081" y="2244.5859">portfolio-outbound</text><text fill="#000000" font-family="sans-serif" font-size="28" lengthAdjust="spacing" textLength="252" x="1095" y="2277.5625">trading-outbound</text><text fill="#000000" font-family="sans-serif" font-size="28" lengthAdjust="spacing" textLength="302" x="1070" y="2310.5391">instrument-outbound</text><text fill="#000000" font-family="sans-serif" font-size="28" lengthAdjust="spacing" textLength="248" x="1097" y="2343.5156">corporate-actions</text><rect fill="#E2E2F0" height="60.9766" rx="5" ry="5" style="stroke:#181818;stroke-width:1.0;" width="178" x="1908" y="224.5273"/><text fill="#000000" font-family="sans-serif" font-size="28" lengthAdjust="spacing" textLength="150" x="1922" y="265.5977">Back Office</text><rect fill="#E2E2F0" height="60.9766" rx="5" ry="5" style="stroke:#181818;stroke-width:1.0;" width="178" x="1908" y="2203.5156"/><text fill="#000000" font-family="sans-serif" font-size="28" lengthAdjust="spacing" textLength="150" x="1922" y="2244.5859">Back Office</text><rect fill="#FFFFFF" height="524.9688" style="stroke:#000000;stroke-width:2.0;" width="20" x="1207" y="485.3672"/><rect fill="#FFFFFF" height="260.4844" style="stroke:#000000;stroke-width:2.0;" width="20" x="1207" y="1131.5781"/><rect fill="#FFFFFF" height="260.4844" style="stroke:#000000;stroke-width:2.0;" width="20" x="1207" y="1513.3047"/><rect fill="#FFFFFF" height="260.4844" style="stroke:#000000;stroke-width:2.0;" width="20" x="1207" y="1895.0313"/><rect fill="#FFFFFF" height="58.6211" style="stroke:#000000;stroke-width:2.0;" width="20" x="1987" y="592.6094"/><rect fill="#FFFFFF" height="58.6211" style="stroke:#000000;stroke-width:2.0;" width="20" x="1987" y="709.8516"/><rect fill="#FFFFFF" height="58.6211" style="stroke:#000000;stroke-width:2.0;" width="20" x="1987" y="1190.1992"/><rect fill="#FFFFFF" height="58.6211" style="stroke:#000000;stroke-width:2.0;" width="20" x="1987" y="1571.9258"/><rect fill="#FFFFFF" height="58.6211" style="stroke:#000000;stroke-width:2.0;" width="20" x="1987" y="1953.6523"/><rect fill="#EEEEEE" height="6" style="stroke:#EEEEEE;stroke-width:2.0;" width="2146" x="0" y="348.8145"/><line style="stroke:#000000;stroke-width:2.0;" x1="0" x2="2146" y1="348.8145" y2="348.8145"/><line style="stroke:#000000;stroke-width:2.0;" x1="0" x2="2146" y1="354.8145" y2="354.8145"/><rect fill="#EEEEEE" height="46.6211" style="stroke:#000000;stroke-width:4.0;" width="452" x="847" y="327.5039"/><text fill="#000000" font-family="sans-serif" font-size="26" font-weight="bold" lengthAdjust="spacing" textLength="416" x="859" y="360.6406">Portfolio Outbound Integration</text><path d="M20,408.125 L460,408.125 L460,422.7461 L440,442.7461 L20,442.7461 L20,408.125 " fill="#EEEEEE" style="stroke:#000000;stroke-width:3.0;"/><rect fill="none" height="618.2109" style="stroke:#000000;stroke-width:3.0;" width="2106" x="20" y="408.125"/><text fill="#000000" font-family="sans-serif" font-size="26" font-weight="bold" lengthAdjust="spacing" textLength="350" x="50" y="435.2617">Get Aggregated Portfolios</text><polygon fill="#181818" points="1183,477.3672,1203,485.3672,1183,493.3672,1191,485.3672" style="stroke:#181818;stroke-width:2.0;"/><line style="stroke:#181818;stroke-width:2.0;" x1="113" x2="1195" y1="485.3672" y2="485.3672"/><text fill="#000000" font-family="sans-serif" font-size="26" font-weight="bold" lengthAdjust="spacing" textLength="18" x="361" y="475.8828">1</text><text fill="#000000" font-family="sans-serif" font-size="26" lengthAdjust="spacing" textLength="48" x="387" y="475.8828">GET</text><text fill="#000000" font-family="sans-serif" font-size="26" lengthAdjust="spacing" textLength="8" x="435" y="475.8828">&#160;</text><text fill="#000000" font-family="sans-serif" font-size="26" lengthAdjust="spacing" textLength="516" x="443" y="475.8828">/service-api/v1/portfolios/aggregations</text><path d="M1028,515.3672 L1176,515.3672 L1176,529.9883 L1156,549.9883 L1028,549.9883 L1028,515.3672 " fill="#EEEEEE" style="stroke:#000000;stroke-width:3.0;"/><rect fill="none" height="353.7266" style="stroke:#000000;stroke-width:3.0;" width="1078" x="1028" y="515.3672"/><text fill="#000000" font-family="sans-serif" font-size="26" font-weight="bold" lengthAdjust="spacing" textLength="58" x="1058" y="542.5039">loop</text><text fill="#000000" font-family="sans-serif" font-size="22" font-weight="bold" lengthAdjust="spacing" textLength="212" x="1206" y="540.6367">[For All Portfolios]</text><polygon fill="#181818" points="1963,584.6094,1983,592.6094,1963,600.6094,1971,592.6094" style="stroke:#181818;stroke-width:2.0;"/><line style="stroke:#181818;stroke-width:2.0;" x1="1227" x2="1975" y1="592.6094" y2="592.6094"/><text fill="#000000" font-family="sans-serif" font-size="26" font-weight="bold" lengthAdjust="spacing" textLength="18" x="1305" y="583.125">2</text><text fill="#000000" font-family="sans-serif" font-size="26" lengthAdjust="spacing" textLength="578" x="1331" y="583.125">/back-office/accounts/{accountID}/summary</text><polygon fill="#181818" points="1249,643.2305,1229,651.2305,1249,659.2305,1241,651.2305" style="stroke:#181818;stroke-width:2.0;"/><line style="stroke:#181818;stroke-width:2.0;stroke-dasharray:2.0,2.0;" x1="1237" x2="1995" y1="651.2305" y2="651.2305"/><text fill="#000000" font-family="sans-serif" font-size="26" font-weight="bold" lengthAdjust="spacing" textLength="18" x="1595" y="641.7461">3</text><text fill="#000000" font-family="sans-serif" font-size="26" lengthAdjust="spacing" textLength="8" x="1621" y="641.7461">&#160;</text><polygon fill="#181818" points="1963,701.8516,1983,709.8516,1963,717.8516,1971,709.8516" style="stroke:#181818;stroke-width:2.0;"/><line style="stroke:#181818;stroke-width:2.0;" x1="1227" x2="1975" y1="709.8516" y2="709.8516"/><text fill="#000000" font-family="sans-serif" font-size="26" font-weight="bold" lengthAdjust="spacing" textLength="18" x="1284" y="700.3672">4</text><text fill="#000000" font-family="sans-serif" font-size="26" lengthAdjust="spacing" textLength="620" x="1310" y="700.3672">/back-office/accounts/{accountID}/performance</text><polygon fill="#181818" points="1249,760.4727,1229,768.4727,1249,776.4727,1241,768.4727" style="stroke:#181818;stroke-width:2.0;"/><line style="stroke:#181818;stroke-width:2.0;stroke-dasharray:2.0,2.0;" x1="1237" x2="1995" y1="768.4727" y2="768.4727"/><text fill="#000000" font-family="sans-serif" font-size="26" font-weight="bold" lengthAdjust="spacing" textLength="18" x="1595" y="758.9883">5</text><text fill="#000000" font-family="sans-serif" font-size="26" lengthAdjust="spacing" textLength="8" x="1621" y="758.9883">&#160;</text><line style="stroke:#181818;stroke-width:2.0;" x1="1227" x2="1311" y1="827.0938" y2="827.0938"/><line style="stroke:#181818;stroke-width:2.0;" x1="1311" x2="1311" y1="827.0938" y2="853.0938"/><line style="stroke:#181818;stroke-width:2.0;" x1="1229" x2="1311" y1="853.0938" y2="853.0938"/><polygon fill="#181818" points="1249,845.0938,1229,853.0938,1249,861.0938,1241,853.0938" style="stroke:#181818;stroke-width:2.0;"/><text fill="#000000" font-family="sans-serif" font-size="26" font-weight="bold" lengthAdjust="spacing" textLength="18" x="1241" y="817.6094">6</text><text fill="#000000" font-family="sans-serif" font-size="26" lengthAdjust="spacing" textLength="116" x="1267" y="817.6094">Calculate</text><text fill="#000000" font-family="sans-serif" font-size="26" lengthAdjust="spacing" textLength="8" x="1383" y="817.6094">&#160;</text><text fill="#000000" font-family="sans-serif" font-size="26" lengthAdjust="spacing" textLength="158" x="1391" y="817.6094">performance</text><text fill="#000000" font-family="sans-serif" font-size="26" lengthAdjust="spacing" textLength="8" x="1549" y="817.6094">&#160;</text><text fill="#000000" font-family="sans-serif" font-size="26" lengthAdjust="spacing" textLength="88" x="1557" y="817.6094">figures</text><line style="stroke:#181818;stroke-width:2.0;" x1="1227" x2="1311" y1="925.7148" y2="925.7148"/><line style="stroke:#181818;stroke-width:2.0;" x1="1311" x2="1311" y1="925.7148" y2="951.7148"/><line style="stroke:#181818;stroke-width:2.0;" x1="1229" x2="1311" y1="951.7148" y2="951.7148"/><polygon fill="#181818" points="1249,943.7148,1229,951.7148,1249,959.7148,1241,951.7148" style="stroke:#181818;stroke-width:2.0;"/><text fill="#000000" font-family="sans-serif" font-size="26" font-weight="bold" lengthAdjust="spacing" textLength="18" x="1241" y="916.2305">7</text><text fill="#000000" font-family="sans-serif" font-size="26" lengthAdjust="spacing" textLength="116" x="1267" y="916.2305">Calculate</text><text fill="#000000" font-family="sans-serif" font-size="26" lengthAdjust="spacing" textLength="8" x="1383" y="916.2305">&#160;</text><text fill="#000000" font-family="sans-serif" font-size="26" lengthAdjust="spacing" textLength="168" x="1391" y="916.2305">Aggregations</text><polygon fill="#181818" points="135,1002.3359,115,1010.3359,135,1018.3359,127,1010.3359" style="stroke:#181818;stroke-width:2.0;"/><line style="stroke:#181818;stroke-width:2.0;stroke-dasharray:2.0,2.0;" x1="123" x2="1215" y1="1010.3359" y2="1010.3359"/><text fill="#000000" font-family="sans-serif" font-size="26" font-weight="bold" lengthAdjust="spacing" textLength="18" x="648" y="1000.8516">8</text><text fill="#000000" font-family="sans-serif" font-size="26" lengthAdjust="spacing" textLength="8" x="674" y="1000.8516">&#160;</text><path d="M20,1054.3359 L418,1054.3359 L418,1068.957 L398,1088.957 L20,1088.957 L20,1054.3359 " fill="#EEEEEE" style="stroke:#000000;stroke-width:3.0;"/><rect fill="none" height="353.7266" style="stroke:#000000;stroke-width:3.0;" width="2086" x="20" y="1054.3359"/><text fill="#000000" font-family="sans-serif" font-size="26" font-weight="bold" lengthAdjust="spacing" textLength="308" x="50" y="1081.4727">Get Performance Chart</text><polygon fill="#181818" points="1183,1123.5781,1203,1131.5781,1183,1139.5781,1191,1131.5781" style="stroke:#181818;stroke-width:2.0;"/><line style="stroke:#181818;stroke-width:2.0;" x1="113" x2="1195" y1="1131.5781" y2="1131.5781"/><text fill="#000000" font-family="sans-serif" font-size="26" font-weight="bold" lengthAdjust="spacing" textLength="18" x="235" y="1122.0938">9</text><text fill="#000000" font-family="sans-serif" font-size="26" lengthAdjust="spacing" textLength="48" x="261" y="1122.0938">GET</text><text fill="#000000" font-family="sans-serif" font-size="26" lengthAdjust="spacing" textLength="8" x="309" y="1122.0938">&#160;</text><text fill="#000000" font-family="sans-serif" font-size="26" lengthAdjust="spacing" textLength="768" x="317" y="1122.0938">/service-api/v1/portfolios/{portfolioId}/performance-charts</text><polygon fill="#181818" points="1963,1182.1992,1983,1190.1992,1963,1198.1992,1971,1190.1992" style="stroke:#181818;stroke-width:2.0;"/><line style="stroke:#181818;stroke-width:2.0;" x1="1227" x2="1975" y1="1190.1992" y2="1190.1992"/><text fill="#000000" font-family="sans-serif" font-size="26" font-weight="bold" lengthAdjust="spacing" textLength="36" x="1247" y="1180.7148">10</text><text fill="#000000" font-family="sans-serif" font-size="26" lengthAdjust="spacing" textLength="48" x="1291" y="1180.7148">GET</text><text fill="#000000" font-family="sans-serif" font-size="26" lengthAdjust="spacing" textLength="8" x="1339" y="1180.7148">&#160;</text><text fill="#000000" font-family="sans-serif" font-size="26" lengthAdjust="spacing" textLength="620" x="1347" y="1180.7148">/back-office/accounts/{accountID}/performance</text><polygon fill="#181818" points="1249,1240.8203,1229,1248.8203,1249,1256.8203,1241,1248.8203" style="stroke:#181818;stroke-width:2.0;"/><line style="stroke:#181818;stroke-width:2.0;stroke-dasharray:2.0,2.0;" x1="1237" x2="1995" y1="1248.8203" y2="1248.8203"/><text fill="#000000" font-family="sans-serif" font-size="26" font-weight="bold" lengthAdjust="spacing" textLength="36" x="1586" y="1239.3359">11</text><text fill="#000000" font-family="sans-serif" font-size="26" lengthAdjust="spacing" textLength="8" x="1630" y="1239.3359">&#160;</text><line style="stroke:#181818;stroke-width:2.0;" x1="1227" x2="1311" y1="1307.4414" y2="1307.4414"/><line style="stroke:#181818;stroke-width:2.0;" x1="1311" x2="1311" y1="1307.4414" y2="1333.4414"/><line style="stroke:#181818;stroke-width:2.0;" x1="1229" x2="1311" y1="1333.4414" y2="1333.4414"/><polygon fill="#181818" points="1249,1325.4414,1229,1333.4414,1249,1341.4414,1241,1333.4414" style="stroke:#181818;stroke-width:2.0;"/><text fill="#000000" font-family="sans-serif" font-size="26" font-weight="bold" lengthAdjust="spacing" textLength="36" x="1241" y="1297.957">12</text><text fill="#000000" font-family="sans-serif" font-size="26" lengthAdjust="spacing" textLength="116" x="1285" y="1297.957">Calculate</text><text fill="#000000" font-family="sans-serif" font-size="26" lengthAdjust="spacing" textLength="8" x="1401" y="1297.957">&#160;</text><text fill="#000000" font-family="sans-serif" font-size="26" lengthAdjust="spacing" textLength="138" x="1409" y="1297.957">cumulative</text><text fill="#000000" font-family="sans-serif" font-size="26" lengthAdjust="spacing" textLength="8" x="1547" y="1297.957">&#160;</text><text fill="#000000" font-family="sans-serif" font-size="26" lengthAdjust="spacing" textLength="158" x="1555" y="1297.957">performance</text><text fill="#000000" font-family="sans-serif" font-size="26" lengthAdjust="spacing" textLength="8" x="1713" y="1297.957">&#160;</text><text fill="#000000" font-family="sans-serif" font-size="26" lengthAdjust="spacing" textLength="64" x="1721" y="1297.957">chart</text><polygon fill="#181818" points="135,1384.0625,115,1392.0625,135,1400.0625,127,1392.0625" style="stroke:#181818;stroke-width:2.0;"/><line style="stroke:#181818;stroke-width:2.0;stroke-dasharray:2.0,2.0;" x1="123" x2="1215" y1="1392.0625" y2="1392.0625"/><text fill="#000000" font-family="sans-serif" font-size="26" font-weight="bold" lengthAdjust="spacing" textLength="36" x="639" y="1382.5781">13</text><text fill="#000000" font-family="sans-serif" font-size="26" lengthAdjust="spacing" textLength="8" x="683" y="1382.5781">&#160;</text><path d="M20,1436.0625 L398,1436.0625 L398,1450.6836 L378,1470.6836 L20,1470.6836 L20,1436.0625 " fill="#EEEEEE" style="stroke:#000000;stroke-width:3.0;"/><rect fill="none" height="353.7266" style="stroke:#000000;stroke-width:3.0;" width="2086" x="20" y="1436.0625"/><text fill="#000000" font-family="sans-serif" font-size="26" font-weight="bold" lengthAdjust="spacing" textLength="288" x="50" y="1463.1992">Get Benchmark Chart</text><polygon fill="#181818" points="1183,1505.3047,1203,1513.3047,1183,1521.3047,1191,1513.3047" style="stroke:#181818;stroke-width:2.0;"/><line style="stroke:#181818;stroke-width:2.0;" x1="113" x2="1195" y1="1513.3047" y2="1513.3047"/><text fill="#000000" font-family="sans-serif" font-size="26" font-weight="bold" lengthAdjust="spacing" textLength="36" x="132" y="1503.8203">14</text><text fill="#000000" font-family="sans-serif" font-size="26" lengthAdjust="spacing" textLength="48" x="176" y="1503.8203">GET</text><text fill="#000000" font-family="sans-serif" font-size="26" lengthAdjust="spacing" textLength="8" x="224" y="1503.8203">&#160;</text><text fill="#000000" font-family="sans-serif" font-size="26" lengthAdjust="spacing" textLength="956" x="232" y="1503.8203">/service-api/v1/portfolios/{portfolioId}/performance-benchmark-histories</text><polygon fill="#181818" points="1963,1563.9258,1983,1571.9258,1963,1579.9258,1971,1571.9258" style="stroke:#181818;stroke-width:2.0;"/><line style="stroke:#181818;stroke-width:2.0;" x1="1227" x2="1975" y1="1571.9258" y2="1571.9258"/><text fill="#000000" font-family="sans-serif" font-size="26" font-weight="bold" lengthAdjust="spacing" textLength="36" x="1246" y="1562.4414">15</text><text fill="#000000" font-family="sans-serif" font-size="26" lengthAdjust="spacing" textLength="48" x="1290" y="1562.4414">GET</text><text fill="#000000" font-family="sans-serif" font-size="26" lengthAdjust="spacing" textLength="8" x="1338" y="1562.4414">&#160;</text><text fill="#000000" font-family="sans-serif" font-size="26" lengthAdjust="spacing" textLength="622" x="1346" y="1562.4414">/back-office/instruments/{externalInstrumentId}</text><polygon fill="#181818" points="1249,1622.5469,1229,1630.5469,1249,1638.5469,1241,1630.5469" style="stroke:#181818;stroke-width:2.0;"/><line style="stroke:#181818;stroke-width:2.0;stroke-dasharray:2.0,2.0;" x1="1237" x2="1995" y1="1630.5469" y2="1630.5469"/><text fill="#000000" font-family="sans-serif" font-size="26" font-weight="bold" lengthAdjust="spacing" textLength="36" x="1586" y="1621.0625">16</text><text fill="#000000" font-family="sans-serif" font-size="26" lengthAdjust="spacing" textLength="8" x="1630" y="1621.0625">&#160;</text><line style="stroke:#181818;stroke-width:2.0;" x1="1227" x2="1311" y1="1689.168" y2="1689.168"/><line style="stroke:#181818;stroke-width:2.0;" x1="1311" x2="1311" y1="1689.168" y2="1715.168"/><line style="stroke:#181818;stroke-width:2.0;" x1="1229" x2="1311" y1="1715.168" y2="1715.168"/><polygon fill="#181818" points="1249,1707.168,1229,1715.168,1249,1723.168,1241,1715.168" style="stroke:#181818;stroke-width:2.0;"/><text fill="#000000" font-family="sans-serif" font-size="26" font-weight="bold" lengthAdjust="spacing" textLength="36" x="1241" y="1679.6836">17</text><text fill="#000000" font-family="sans-serif" font-size="26" lengthAdjust="spacing" textLength="116" x="1285" y="1679.6836">Calculate</text><text fill="#000000" font-family="sans-serif" font-size="26" lengthAdjust="spacing" textLength="8" x="1401" y="1679.6836">&#160;</text><text fill="#000000" font-family="sans-serif" font-size="26" lengthAdjust="spacing" textLength="140" x="1409" y="1679.6836">benchmark</text><text fill="#000000" font-family="sans-serif" font-size="26" lengthAdjust="spacing" textLength="8" x="1549" y="1679.6836">&#160;</text><text fill="#000000" font-family="sans-serif" font-size="26" lengthAdjust="spacing" textLength="138" x="1557" y="1679.6836">percentage</text><polygon fill="#181818" points="135,1765.7891,115,1773.7891,135,1781.7891,127,1773.7891" style="stroke:#181818;stroke-width:2.0;"/><line style="stroke:#181818;stroke-width:2.0;stroke-dasharray:2.0,2.0;" x1="123" x2="1215" y1="1773.7891" y2="1773.7891"/><text fill="#000000" font-family="sans-serif" font-size="26" font-weight="bold" lengthAdjust="spacing" textLength="36" x="639" y="1764.3047">18</text><text fill="#000000" font-family="sans-serif" font-size="26" lengthAdjust="spacing" textLength="8" x="683" y="1764.3047">&#160;</text><path d="M20,1817.7891 L532,1817.7891 L532,1832.4102 L512,1852.4102 L20,1852.4102 L20,1817.7891 " fill="#EEEEEE" style="stroke:#000000;stroke-width:3.0;"/><rect fill="none" height="353.7266" style="stroke:#000000;stroke-width:3.0;" width="2086" x="20" y="1817.7891"/><text fill="#000000" font-family="sans-serif" font-size="26" font-weight="bold" lengthAdjust="spacing" textLength="422" x="50" y="1844.9258">Get Valuation &amp; Variation Chart</text><polygon fill="#181818" points="1183,1887.0313,1203,1895.0313,1183,1903.0313,1191,1895.0313" style="stroke:#181818;stroke-width:2.0;"/><line style="stroke:#181818;stroke-width:2.0;" x1="113" x2="1195" y1="1895.0313" y2="1895.0313"/><text fill="#000000" font-family="sans-serif" font-size="26" font-weight="bold" lengthAdjust="spacing" textLength="36" x="247" y="1885.5469">19</text><text fill="#000000" font-family="sans-serif" font-size="26" lengthAdjust="spacing" textLength="48" x="291" y="1885.5469">GET</text><text fill="#000000" font-family="sans-serif" font-size="26" lengthAdjust="spacing" textLength="8" x="339" y="1885.5469">&#160;</text><text fill="#000000" font-family="sans-serif" font-size="26" lengthAdjust="spacing" textLength="726" x="347" y="1885.5469">/service-api/v1/portfolios/{portfolioId}/valuation-charts</text><polygon fill="#181818" points="1963,1945.6523,1983,1953.6523,1963,1961.6523,1971,1953.6523" style="stroke:#181818;stroke-width:2.0;"/><line style="stroke:#181818;stroke-width:2.0;" x1="1227" x2="1975" y1="1953.6523" y2="1953.6523"/><text fill="#000000" font-family="sans-serif" font-size="26" font-weight="bold" lengthAdjust="spacing" textLength="36" x="1247" y="1944.168">20</text><text fill="#000000" font-family="sans-serif" font-size="26" lengthAdjust="spacing" textLength="48" x="1291" y="1944.168">GET</text><text fill="#000000" font-family="sans-serif" font-size="26" lengthAdjust="spacing" textLength="8" x="1339" y="1944.168">&#160;</text><text fill="#000000" font-family="sans-serif" font-size="26" lengthAdjust="spacing" textLength="620" x="1347" y="1944.168">/back-office/accounts/{accountID}/performance</text><polygon fill="#181818" points="1249,2004.2734,1229,2012.2734,1249,2020.2734,1241,2012.2734" style="stroke:#181818;stroke-width:2.0;"/><line style="stroke:#181818;stroke-width:2.0;stroke-dasharray:2.0,2.0;" x1="1237" x2="1995" y1="2012.2734" y2="2012.2734"/><text fill="#000000" font-family="sans-serif" font-size="26" font-weight="bold" lengthAdjust="spacing" textLength="36" x="1586" y="2002.7891">21</text><text fill="#000000" font-family="sans-serif" font-size="26" lengthAdjust="spacing" textLength="8" x="1630" y="2002.7891">&#160;</text><line style="stroke:#181818;stroke-width:2.0;" x1="1227" x2="1311" y1="2070.8945" y2="2070.8945"/><line style="stroke:#181818;stroke-width:2.0;" x1="1311" x2="1311" y1="2070.8945" y2="2096.8945"/><line style="stroke:#181818;stroke-width:2.0;" x1="1229" x2="1311" y1="2096.8945" y2="2096.8945"/><polygon fill="#181818" points="1249,2088.8945,1229,2096.8945,1249,2104.8945,1241,2096.8945" style="stroke:#181818;stroke-width:2.0;"/><text fill="#000000" font-family="sans-serif" font-size="26" font-weight="bold" lengthAdjust="spacing" textLength="36" x="1241" y="2061.4102">22</text><text fill="#000000" font-family="sans-serif" font-size="26" lengthAdjust="spacing" textLength="116" x="1285" y="2061.4102">Calculate</text><text fill="#000000" font-family="sans-serif" font-size="26" lengthAdjust="spacing" textLength="8" x="1401" y="2061.4102">&#160;</text><text fill="#000000" font-family="sans-serif" font-size="26" lengthAdjust="spacing" textLength="116" x="1409" y="2061.4102">valuation</text><text fill="#000000" font-family="sans-serif" font-size="26" lengthAdjust="spacing" textLength="8" x="1525" y="2061.4102">&#160;</text><text fill="#000000" font-family="sans-serif" font-size="26" lengthAdjust="spacing" textLength="46" x="1533" y="2061.4102">and</text><text fill="#000000" font-family="sans-serif" font-size="26" lengthAdjust="spacing" textLength="8" x="1579" y="2061.4102">&#160;</text><text fill="#000000" font-family="sans-serif" font-size="26" lengthAdjust="spacing" textLength="110" x="1587" y="2061.4102">variation</text><text fill="#000000" font-family="sans-serif" font-size="26" lengthAdjust="spacing" textLength="8" x="1697" y="2061.4102">&#160;</text><text fill="#000000" font-family="sans-serif" font-size="26" lengthAdjust="spacing" textLength="78" x="1705" y="2061.4102">charts</text><polygon fill="#181818" points="135,2147.5156,115,2155.5156,135,2163.5156,127,2155.5156" style="stroke:#181818;stroke-width:2.0;"/><line style="stroke:#181818;stroke-width:2.0;stroke-dasharray:2.0,2.0;" x1="123" x2="1215" y1="2155.5156" y2="2155.5156"/><text fill="#000000" font-family="sans-serif" font-size="26" font-weight="bold" lengthAdjust="spacing" textLength="36" x="639" y="2146.0313">23</text><text fill="#000000" font-family="sans-serif" font-size="26" lengthAdjust="spacing" textLength="8" x="683" y="2146.0313">&#160;</text><!--SRC=[rLKzRzim4DtrAwugq4woqgM30GVmHnjuA18WHRjaeQYpH9WYLNweIOF-znvbIPPTmmWQBzLqEFBUU_VkJByldQljD4rhoPJpbPnmNQKMVtXK79DSiCAmAegSS18XljF6RRGK6cwzoxHNEQoLGxhZX5PnnBpJobSPciXkXQeP5KF57h-WjQp0U_4BuUFLrUWmOtnRc82qr58RWBS_I-4mYg9CFqAyeEECMOmZe8zAdE2Y9gaGhnRtyA06HJ4m2tbc8oHHLDi1BBrrkZfK-HTKtOCakclhGO4pB1Ug6AU4iixu2fKRPxas1C0S9em70jjAwIySwLaPqI1yHoPTUK99w1TkDnl1iKN9zBv-DeFp_iDi5aN1p1fkqC6yA0mMf2lVrzcMaco2v7gGE8MRJr-1fcuQuarOBTBcGpgOObFM8ONcMe3GQ4F8-ov3LcfTmsSQubpAOyhmzPS3TwQda8RX9xhjDcMSqvcpwNCNhLU_K-khYfcd0M7W9L_wd47dZNe5IOrceqt5QE5VGdIIQOYdi6IIUnbgHy2m4OKtQ7VLs1bs2c4CC3_slPCGwaU3lXlnB4jQftyQylCGh_C3Kn8UCCyD_fJlBTkblN-nzTnN8GY_jV4K-E1EFymZAnVqx9MqSjlEo0ixcVNmIIdeNJ82Nsth_aqYOdnqQ1IJwo592YvgxD11y9KJ0JthSCxHRqpwtUlqZc8ZTl6brhJfqV_79Ht40wEJPZ1drCg1gM-4ujBd29D9QjsJn8cWV-pe3m00]--></g></svg>