<?xml version="1.0" encoding="UTF-8" standalone="no"?><svg xmlns="http://www.w3.org/2000/svg" xmlns:xlink="http://www.w3.org/1999/xlink" contentStyleType="text/css" height="2022px" preserveAspectRatio="none" style="width:1934px;height:2022px;background:#FFFFFF;" version="1.1" viewBox="0 0 1934 2022" width="1934px" zoomAndPan="magnify"><defs/><g><rect fill="none" height="2018.3203" style="stroke:#1281AC;stroke-width:2.0;" width="1930" x="0" y="0"/><text fill="#000000" font-family="sans-serif" font-size="28" font-weight="bold" lengthAdjust="spacing" textLength="358" x="780" y="57.0703">Market News Integration</text><rect fill="#F3F3F3" height="1923.3438" style="stroke:#1281AC;stroke-width:1.0;" width="226" x="734" y="86.9766"/><text fill="#1281AC" font-family="sans-serif" font-size="26" font-weight="bold" lengthAdjust="spacing" textLength="102" x="796" y="112.1133">Custom</text><rect fill="#F3F3F3" height="1923.3438" style="stroke:#1281AC;stroke-width:1.0;" width="206" x="1668" y="86.9766"/><text fill="#1281AC" font-family="sans-serif" font-size="26" font-weight="bold" lengthAdjust="spacing" textLength="194" x="1674" y="112.1133">News Provider</text><rect fill="#FFFFFF" height="260.4844" style="stroke:#000000;stroke-width:2.0;" width="20" x="837" y="435.0586"/><rect fill="#FFFFFF" height="143.2422" style="stroke:#000000;stroke-width:2.0;" width="20" x="837" y="830.7852"/><rect fill="#FFFFFF" height="143.2422" style="stroke:#000000;stroke-width:2.0;" width="20" x="837" y="1153.8906"/><rect fill="#FFFFFF" height="175.8633" style="stroke:#000000;stroke-width:2.0;" width="20" x="837" y="1418.375"/><rect fill="#FFFFFF" height="175.8633" style="stroke:#000000;stroke-width:2.0;" width="20" x="837" y="1715.4805"/><rect fill="#FFFFFF" height="58.6211" style="stroke:#000000;stroke-width:2.0;" width="20" x="1761" y="493.6797"/><rect fill="#FFFFFF" height="58.6211" style="stroke:#000000;stroke-width:2.0;" width="20" x="1761" y="1476.9961"/><rect fill="#FFFFFF" height="58.6211" style="stroke:#000000;stroke-width:2.0;" width="20" x="1761" y="1774.1016"/><rect fill="none" height="416.3477" style="stroke:#000000;stroke-width:3.0;" width="1880" x="20" y="309.1953"/><rect fill="none" height="353.7266" style="stroke:#000000;stroke-width:3.0;" width="1840" x="40" y="357.8164"/><rect fill="none" height="295.1055" style="stroke:#000000;stroke-width:3.0;" width="1143" x="40" y="753.543"/><rect fill="none" height="236.4844" style="stroke:#000000;stroke-width:3.0;" width="1291" x="40" y="1076.6484"/><rect fill="none" height="269.1055" style="stroke:#000000;stroke-width:3.0;" width="1840" x="40" y="1341.1328"/><rect fill="none" height="269.1055" style="stroke:#000000;stroke-width:3.0;" width="1840" x="40" y="1638.2383"/><line style="stroke:#000000;stroke-width:1.0;stroke-dasharray:5.0,5.0;" x1="184" x2="184" y1="188.5742" y2="1941.3438"/><line style="stroke:#000000;stroke-width:1.0;stroke-dasharray:5.0,5.0;" x1="846" x2="846" y1="188.5742" y2="1941.3438"/><line style="stroke:#000000;stroke-width:1.0;stroke-dasharray:5.0,5.0;" x1="1770" x2="1770" y1="188.5742" y2="1941.3438"/><rect fill="#E2E2F0" height="60.9766" rx="5" ry="5" style="stroke:#181818;stroke-width:1.0;" width="250" x="60" y="125.5977"/><text fill="#000000" font-family="sans-serif" font-size="28" lengthAdjust="spacing" textLength="222" x="74" y="166.668">Wealth Web App</text><rect fill="#E2E2F0" height="60.9766" rx="5" ry="5" style="stroke:#181818;stroke-width:1.0;" width="250" x="60" y="1939.3438"/><text fill="#000000" font-family="sans-serif" font-size="28" lengthAdjust="spacing" textLength="222" x="74" y="1980.4141">Wealth Web App</text><rect fill="#E2E2F0" height="60.9766" rx="5" ry="5" style="stroke:#181818;stroke-width:1.0;" width="210" x="742" y="125.5977"/><text fill="#000000" font-family="sans-serif" font-size="28" lengthAdjust="spacing" textLength="182" x="756" y="166.668">market-news</text><rect fill="#E2E2F0" height="60.9766" rx="5" ry="5" style="stroke:#181818;stroke-width:1.0;" width="210" x="742" y="1939.3438"/><text fill="#000000" font-family="sans-serif" font-size="28" lengthAdjust="spacing" textLength="182" x="756" y="1980.4141">market-news</text><rect fill="#E2E2F0" height="60.9766" rx="5" ry="5" style="stroke:#181818;stroke-width:1.0;" width="178" x="1682" y="125.5977"/><text fill="#000000" font-family="sans-serif" font-size="28" lengthAdjust="spacing" textLength="150" x="1696" y="166.668">Back Office</text><rect fill="#E2E2F0" height="60.9766" rx="5" ry="5" style="stroke:#181818;stroke-width:1.0;" width="178" x="1682" y="1939.3438"/><text fill="#000000" font-family="sans-serif" font-size="28" lengthAdjust="spacing" textLength="150" x="1696" y="1980.4141">Back Office</text><rect fill="#FFFFFF" height="260.4844" style="stroke:#000000;stroke-width:2.0;" width="20" x="837" y="435.0586"/><rect fill="#FFFFFF" height="143.2422" style="stroke:#000000;stroke-width:2.0;" width="20" x="837" y="830.7852"/><rect fill="#FFFFFF" height="143.2422" style="stroke:#000000;stroke-width:2.0;" width="20" x="837" y="1153.8906"/><rect fill="#FFFFFF" height="175.8633" style="stroke:#000000;stroke-width:2.0;" width="20" x="837" y="1418.375"/><rect fill="#FFFFFF" height="175.8633" style="stroke:#000000;stroke-width:2.0;" width="20" x="837" y="1715.4805"/><rect fill="#FFFFFF" height="58.6211" style="stroke:#000000;stroke-width:2.0;" width="20" x="1761" y="493.6797"/><rect fill="#FFFFFF" height="58.6211" style="stroke:#000000;stroke-width:2.0;" width="20" x="1761" y="1476.9961"/><rect fill="#FFFFFF" height="58.6211" style="stroke:#000000;stroke-width:2.0;" width="20" x="1761" y="1774.1016"/><rect fill="#EEEEEE" height="6" style="stroke:#EEEEEE;stroke-width:2.0;" width="1920" x="0" y="249.8848"/><line style="stroke:#000000;stroke-width:2.0;" x1="0" x2="1920" y1="249.8848" y2="249.8848"/><line style="stroke:#000000;stroke-width:2.0;" x1="0" x2="1920" y1="255.8848" y2="255.8848"/><rect fill="#EEEEEE" height="46.6211" style="stroke:#000000;stroke-width:4.0;" width="210" x="855" y="228.5742"/><text fill="#000000" font-family="sans-serif" font-size="26" font-weight="bold" lengthAdjust="spacing" textLength="174" x="867" y="261.7109">Market News</text><path d="M20,309.1953 L244,309.1953 L244,323.8164 L224,343.8164 L20,343.8164 L20,309.1953 " fill="#EEEEEE" style="stroke:#000000;stroke-width:3.0;"/><rect fill="none" height="416.3477" style="stroke:#000000;stroke-width:3.0;" width="1880" x="20" y="309.1953"/><text fill="#000000" font-family="sans-serif" font-size="26" font-weight="bold" lengthAdjust="spacing" textLength="134" x="50" y="336.332">Scheduler</text><path d="M40,357.8164 L188,357.8164 L188,372.4375 L168,392.4375 L40,392.4375 L40,357.8164 " fill="#EEEEEE" style="stroke:#000000;stroke-width:3.0;"/><rect fill="none" height="353.7266" style="stroke:#000000;stroke-width:3.0;" width="1840" x="40" y="357.8164"/><text fill="#000000" font-family="sans-serif" font-size="26" font-weight="bold" lengthAdjust="spacing" textLength="58" x="70" y="384.9531">loop</text><text fill="#000000" font-family="sans-serif" font-size="22" font-weight="bold" lengthAdjust="spacing" textLength="186" x="218" y="383.0859">[for each feedId]</text><polygon fill="#181818" points="813,427.0586,833,435.0586,813,443.0586,821,435.0586" style="stroke:#181818;stroke-width:2.0;"/><line style="stroke:#181818;stroke-width:2.0;" x1="185" x2="825" y1="435.0586" y2="435.0586"/><text fill="#000000" font-family="sans-serif" font-size="26" font-weight="bold" lengthAdjust="spacing" textLength="18" x="245" y="425.5742">1</text><text fill="#000000" font-family="sans-serif" font-size="26" lengthAdjust="spacing" textLength="48" x="271" y="425.5742">GET</text><text fill="#000000" font-family="sans-serif" font-size="26" lengthAdjust="spacing" textLength="8" x="319" y="425.5742"> </text><text fill="#000000" font-family="sans-serif" font-size="26" lengthAdjust="spacing" textLength="450" x="327" y="425.5742">/client-api/v1/news/feeds/{feedId}</text><polygon fill="#181818" points="1737,485.6797,1757,493.6797,1737,501.6797,1745,493.6797" style="stroke:#181818;stroke-width:2.0;"/><line style="stroke:#181818;stroke-width:2.0;" x1="857" x2="1749" y1="493.6797" y2="493.6797"/><text fill="#000000" font-family="sans-serif" font-size="26" font-weight="bold" lengthAdjust="spacing" textLength="18" x="888" y="484.1953">2</text><text fill="#000000" font-family="sans-serif" font-size="26" lengthAdjust="spacing" textLength="816" x="914" y="484.1953">https://query1.finance.yahoo.com/v1/finance/search?q={Query}</text><polygon fill="#181818" points="879,544.3008,859,552.3008,879,560.3008,871,552.3008" style="stroke:#181818;stroke-width:2.0;"/><line style="stroke:#181818;stroke-width:2.0;stroke-dasharray:2.0,2.0;" x1="867" x2="1769" y1="552.3008" y2="552.3008"/><text fill="#000000" font-family="sans-serif" font-size="26" font-weight="bold" lengthAdjust="spacing" textLength="18" x="1297" y="542.8164">3</text><text fill="#000000" font-family="sans-serif" font-size="26" lengthAdjust="spacing" textLength="8" x="1323" y="542.8164"> </text><line style="stroke:#181818;stroke-width:2.0;" x1="857" x2="941" y1="610.9219" y2="610.9219"/><line style="stroke:#181818;stroke-width:2.0;" x1="941" x2="941" y1="610.9219" y2="636.9219"/><line style="stroke:#181818;stroke-width:2.0;" x1="859" x2="941" y1="636.9219" y2="636.9219"/><polygon fill="#181818" points="879,628.9219,859,636.9219,879,644.9219,871,636.9219" style="stroke:#181818;stroke-width:2.0;"/><text fill="#000000" font-family="sans-serif" font-size="26" font-weight="bold" lengthAdjust="spacing" textLength="18" x="871" y="601.4375">4</text><text fill="#000000" font-family="sans-serif" font-size="26" lengthAdjust="spacing" textLength="76" x="897" y="601.4375">Cache</text><text fill="#000000" font-family="sans-serif" font-size="26" lengthAdjust="spacing" textLength="8" x="973" y="601.4375"> </text><text fill="#000000" font-family="sans-serif" font-size="26" lengthAdjust="spacing" textLength="114" x="981" y="601.4375">response</text><polygon fill="#181818" points="207,687.543,187,695.543,207,703.543,199,695.543" style="stroke:#181818;stroke-width:2.0;"/><line style="stroke:#181818;stroke-width:2.0;stroke-dasharray:2.0,2.0;" x1="195" x2="845" y1="695.543" y2="695.543"/><text fill="#000000" font-family="sans-serif" font-size="26" font-weight="bold" lengthAdjust="spacing" textLength="18" x="499" y="686.0586">5</text><text fill="#000000" font-family="sans-serif" font-size="26" lengthAdjust="spacing" textLength="8" x="525" y="686.0586"> </text><path d="M40,753.543 L328,753.543 L328,768.1641 L308,788.1641 L40,788.1641 L40,753.543 " fill="#EEEEEE" style="stroke:#000000;stroke-width:3.0;"/><rect fill="none" height="295.1055" style="stroke:#000000;stroke-width:3.0;" width="1143" x="40" y="753.543"/><text fill="#000000" font-family="sans-serif" font-size="26" font-weight="bold" lengthAdjust="spacing" textLength="198" x="70" y="780.6797">Get Feed News</text><polygon fill="#181818" points="813,822.7852,833,830.7852,813,838.7852,821,830.7852" style="stroke:#181818;stroke-width:2.0;"/><line style="stroke:#181818;stroke-width:2.0;" x1="185" x2="825" y1="830.7852" y2="830.7852"/><text fill="#000000" font-family="sans-serif" font-size="26" font-weight="bold" lengthAdjust="spacing" textLength="18" x="245" y="821.3008">6</text><text fill="#000000" font-family="sans-serif" font-size="26" lengthAdjust="spacing" textLength="48" x="271" y="821.3008">GET</text><text fill="#000000" font-family="sans-serif" font-size="26" lengthAdjust="spacing" textLength="8" x="319" y="821.3008"> </text><text fill="#000000" font-family="sans-serif" font-size="26" lengthAdjust="spacing" textLength="450" x="327" y="821.3008">/client-api/v1/news/feeds/{feedId}</text><line style="stroke:#181818;stroke-width:2.0;" x1="857" x2="941" y1="889.4063" y2="889.4063"/><line style="stroke:#181818;stroke-width:2.0;" x1="941" x2="941" y1="889.4063" y2="915.4063"/><line style="stroke:#181818;stroke-width:2.0;" x1="859" x2="941" y1="915.4063" y2="915.4063"/><polygon fill="#181818" points="879,907.4063,859,915.4063,879,923.4063,871,915.4063" style="stroke:#181818;stroke-width:2.0;"/><text fill="#000000" font-family="sans-serif" font-size="26" font-weight="bold" lengthAdjust="spacing" textLength="18" x="871" y="879.9219">7</text><text fill="#000000" font-family="sans-serif" font-size="26" lengthAdjust="spacing" textLength="42" x="897" y="879.9219">Get</text><text fill="#000000" font-family="sans-serif" font-size="26" lengthAdjust="spacing" textLength="8" x="939" y="879.9219"> </text><text fill="#000000" font-family="sans-serif" font-size="26" lengthAdjust="spacing" textLength="64" x="947" y="879.9219">news</text><text fill="#000000" font-family="sans-serif" font-size="26" lengthAdjust="spacing" textLength="8" x="1011" y="879.9219"> </text><text fill="#000000" font-family="sans-serif" font-size="26" lengthAdjust="spacing" textLength="60" x="1019" y="879.9219">from</text><text fill="#000000" font-family="sans-serif" font-size="26" lengthAdjust="spacing" textLength="8" x="1079" y="879.9219"> </text><text fill="#000000" font-family="sans-serif" font-size="26" lengthAdjust="spacing" textLength="72" x="1087" y="879.9219">cache</text><polygon fill="#181818" points="207,966.0273,187,974.0273,207,982.0273,199,974.0273" style="stroke:#181818;stroke-width:2.0;"/><line style="stroke:#181818;stroke-width:2.0;stroke-dasharray:2.0,2.0;" x1="195" x2="845" y1="974.0273" y2="974.0273"/><text fill="#000000" font-family="sans-serif" font-size="26" font-weight="bold" lengthAdjust="spacing" textLength="18" x="499" y="964.543">8</text><text fill="#000000" font-family="sans-serif" font-size="26" lengthAdjust="spacing" textLength="8" x="525" y="964.543"> </text><polygon fill="#181818" points="823,1024.6484,843,1032.6484,823,1040.6484,831,1032.6484" style="stroke:#181818;stroke-width:2.0;"/><line style="stroke:#181818;stroke-width:2.0;stroke-dasharray:2.0,2.0;" x1="185" x2="835" y1="1032.6484" y2="1032.6484"/><text fill="#000000" font-family="sans-serif" font-size="26" font-weight="bold" lengthAdjust="spacing" textLength="18" x="499" y="1023.1641">9</text><text fill="#000000" font-family="sans-serif" font-size="26" lengthAdjust="spacing" textLength="8" x="525" y="1023.1641"> </text><path d="M40,1076.6484 L262,1076.6484 L262,1091.2695 L242,1111.2695 L40,1111.2695 L40,1076.6484 " fill="#EEEEEE" style="stroke:#000000;stroke-width:3.0;"/><rect fill="none" height="236.4844" style="stroke:#000000;stroke-width:3.0;" width="1291" x="40" y="1076.6484"/><text fill="#000000" font-family="sans-serif" font-size="26" font-weight="bold" lengthAdjust="spacing" textLength="132" x="70" y="1103.7852">Get Feeds</text><polygon fill="#181818" points="813,1145.8906,833,1153.8906,813,1161.8906,821,1153.8906" style="stroke:#181818;stroke-width:2.0;"/><line style="stroke:#181818;stroke-width:2.0;" x1="185" x2="825" y1="1153.8906" y2="1153.8906"/><text fill="#000000" font-family="sans-serif" font-size="26" font-weight="bold" lengthAdjust="spacing" textLength="36" x="290" y="1144.4063">10</text><text fill="#000000" font-family="sans-serif" font-size="26" lengthAdjust="spacing" textLength="48" x="334" y="1144.4063">GET</text><text fill="#000000" font-family="sans-serif" font-size="26" lengthAdjust="spacing" textLength="8" x="382" y="1144.4063"> </text><text fill="#000000" font-family="sans-serif" font-size="26" lengthAdjust="spacing" textLength="342" x="390" y="1144.4063">/client-api/v1/news/feeds</text><line style="stroke:#181818;stroke-width:2.0;" x1="857" x2="941" y1="1212.5117" y2="1212.5117"/><line style="stroke:#181818;stroke-width:2.0;" x1="941" x2="941" y1="1212.5117" y2="1238.5117"/><line style="stroke:#181818;stroke-width:2.0;" x1="859" x2="941" y1="1238.5117" y2="1238.5117"/><polygon fill="#181818" points="879,1230.5117,859,1238.5117,879,1246.5117,871,1238.5117" style="stroke:#181818;stroke-width:2.0;"/><text fill="#000000" font-family="sans-serif" font-size="26" font-weight="bold" lengthAdjust="spacing" textLength="36" x="871" y="1203.0273">11</text><text fill="#000000" font-family="sans-serif" font-size="26" lengthAdjust="spacing" textLength="42" x="915" y="1203.0273">Get</text><text fill="#000000" font-family="sans-serif" font-size="26" lengthAdjust="spacing" textLength="8" x="957" y="1203.0273"> </text><text fill="#000000" font-family="sans-serif" font-size="26" lengthAdjust="spacing" textLength="38" x="965" y="1203.0273">Pre</text><text fill="#000000" font-family="sans-serif" font-size="26" lengthAdjust="spacing" textLength="8" x="1003" y="1203.0273"> </text><text fill="#000000" font-family="sans-serif" font-size="26" lengthAdjust="spacing" textLength="140" x="1011" y="1203.0273">Configured</text><text fill="#000000" font-family="sans-serif" font-size="26" lengthAdjust="spacing" textLength="8" x="1151" y="1203.0273"> </text><text fill="#000000" font-family="sans-serif" font-size="26" lengthAdjust="spacing" textLength="68" x="1159" y="1203.0273">News</text><text fill="#000000" font-family="sans-serif" font-size="26" lengthAdjust="spacing" textLength="8" x="1227" y="1203.0273"> </text><text fill="#000000" font-family="sans-serif" font-size="26" lengthAdjust="spacing" textLength="72" x="1235" y="1203.0273">Feeds</text><polygon fill="#181818" points="207,1289.1328,187,1297.1328,207,1305.1328,199,1297.1328" style="stroke:#181818;stroke-width:2.0;"/><line style="stroke:#181818;stroke-width:2.0;stroke-dasharray:2.0,2.0;" x1="195" x2="845" y1="1297.1328" y2="1297.1328"/><text fill="#000000" font-family="sans-serif" font-size="26" font-weight="bold" lengthAdjust="spacing" textLength="36" x="490" y="1287.6484">12</text><text fill="#000000" font-family="sans-serif" font-size="26" lengthAdjust="spacing" textLength="8" x="534" y="1287.6484"> </text><path d="M40,1341.1328 L414,1341.1328 L414,1355.7539 L394,1375.7539 L40,1375.7539 L40,1341.1328 " fill="#EEEEEE" style="stroke:#000000;stroke-width:3.0;"/><rect fill="none" height="269.1055" style="stroke:#000000;stroke-width:3.0;" width="1840" x="40" y="1341.1328"/><text fill="#000000" font-family="sans-serif" font-size="26" font-weight="bold" lengthAdjust="spacing" textLength="284" x="70" y="1368.2695">Get Instrument News</text><polygon fill="#181818" points="813,1410.375,833,1418.375,813,1426.375,821,1418.375" style="stroke:#181818;stroke-width:2.0;"/><line style="stroke:#181818;stroke-width:2.0;" x1="185" x2="825" y1="1418.375" y2="1418.375"/><text fill="#000000" font-family="sans-serif" font-size="26" font-weight="bold" lengthAdjust="spacing" textLength="36" x="204" y="1408.8906">13</text><text fill="#000000" font-family="sans-serif" font-size="26" lengthAdjust="spacing" textLength="48" x="248" y="1408.8906">GET</text><text fill="#000000" font-family="sans-serif" font-size="26" lengthAdjust="spacing" textLength="8" x="296" y="1408.8906"> </text><text fill="#000000" font-family="sans-serif" font-size="26" lengthAdjust="spacing" textLength="514" x="304" y="1408.8906">/client-api/v1/news/instrument/{ticker}</text><polygon fill="#181818" points="1737,1468.9961,1757,1476.9961,1737,1484.9961,1745,1476.9961" style="stroke:#181818;stroke-width:2.0;"/><line style="stroke:#181818;stroke-width:2.0;" x1="857" x2="1749" y1="1476.9961" y2="1476.9961"/><text fill="#000000" font-family="sans-serif" font-size="26" font-weight="bold" lengthAdjust="spacing" textLength="36" x="879" y="1467.5117">14</text><text fill="#000000" font-family="sans-serif" font-size="26" lengthAdjust="spacing" textLength="816" x="923" y="1467.5117">https://query1.finance.yahoo.com/v1/finance/search?q={Query}</text><polygon fill="#181818" points="879,1527.6172,859,1535.6172,879,1543.6172,871,1535.6172" style="stroke:#181818;stroke-width:2.0;"/><line style="stroke:#181818;stroke-width:2.0;stroke-dasharray:2.0,2.0;" x1="867" x2="1769" y1="1535.6172" y2="1535.6172"/><text fill="#000000" font-family="sans-serif" font-size="26" font-weight="bold" lengthAdjust="spacing" textLength="36" x="1288" y="1526.1328">15</text><text fill="#000000" font-family="sans-serif" font-size="26" lengthAdjust="spacing" textLength="8" x="1332" y="1526.1328"> </text><polygon fill="#181818" points="207,1586.2383,187,1594.2383,207,1602.2383,199,1594.2383" style="stroke:#181818;stroke-width:2.0;"/><line style="stroke:#181818;stroke-width:2.0;stroke-dasharray:2.0,2.0;" x1="195" x2="845" y1="1594.2383" y2="1594.2383"/><text fill="#000000" font-family="sans-serif" font-size="26" font-weight="bold" lengthAdjust="spacing" textLength="36" x="490" y="1584.7539">16</text><text fill="#000000" font-family="sans-serif" font-size="26" lengthAdjust="spacing" textLength="8" x="534" y="1584.7539"> </text><path d="M40,1638.2383 L300,1638.2383 L300,1652.8594 L280,1672.8594 L40,1672.8594 L40,1638.2383 " fill="#EEEEEE" style="stroke:#000000;stroke-width:3.0;"/><rect fill="none" height="269.1055" style="stroke:#000000;stroke-width:3.0;" width="1840" x="40" y="1638.2383"/><text fill="#000000" font-family="sans-serif" font-size="26" font-weight="bold" lengthAdjust="spacing" textLength="170" x="70" y="1665.375">Search News</text><polygon fill="#181818" points="813,1707.4805,833,1715.4805,813,1723.4805,821,1715.4805" style="stroke:#181818;stroke-width:2.0;"/><line style="stroke:#181818;stroke-width:2.0;" x1="185" x2="825" y1="1715.4805" y2="1715.4805"/><text fill="#000000" font-family="sans-serif" font-size="26" font-weight="bold" lengthAdjust="spacing" textLength="36" x="283" y="1705.9961">17</text><text fill="#000000" font-family="sans-serif" font-size="26" lengthAdjust="spacing" textLength="48" x="327" y="1705.9961">GET</text><text fill="#000000" font-family="sans-serif" font-size="26" lengthAdjust="spacing" textLength="8" x="375" y="1705.9961"> </text><text fill="#000000" font-family="sans-serif" font-size="26" lengthAdjust="spacing" textLength="356" x="383" y="1705.9961">/client-api/v1/news/search</text><polygon fill="#181818" points="1737,1766.1016,1757,1774.1016,1737,1782.1016,1745,1774.1016" style="stroke:#181818;stroke-width:2.0;"/><line style="stroke:#181818;stroke-width:2.0;" x1="857" x2="1749" y1="1774.1016" y2="1774.1016"/><text fill="#000000" font-family="sans-serif" font-size="26" font-weight="bold" lengthAdjust="spacing" textLength="36" x="879" y="1764.6172">18</text><text fill="#000000" font-family="sans-serif" font-size="26" lengthAdjust="spacing" textLength="816" x="923" y="1764.6172">https://query1.finance.yahoo.com/v1/finance/search?q={Query}</text><polygon fill="#181818" points="879,1824.7227,859,1832.7227,879,1840.7227,871,1832.7227" style="stroke:#181818;stroke-width:2.0;"/><line style="stroke:#181818;stroke-width:2.0;stroke-dasharray:2.0,2.0;" x1="867" x2="1769" y1="1832.7227" y2="1832.7227"/><text fill="#000000" font-family="sans-serif" font-size="26" font-weight="bold" lengthAdjust="spacing" textLength="36" x="1288" y="1823.2383">19</text><text fill="#000000" font-family="sans-serif" font-size="26" lengthAdjust="spacing" textLength="8" x="1332" y="1823.2383"> </text><polygon fill="#181818" points="207,1883.3438,187,1891.3438,207,1899.3438,199,1891.3438" style="stroke:#181818;stroke-width:2.0;"/><line style="stroke:#181818;stroke-width:2.0;stroke-dasharray:2.0,2.0;" x1="195" x2="845" y1="1891.3438" y2="1891.3438"/><text fill="#000000" font-family="sans-serif" font-size="26" font-weight="bold" lengthAdjust="spacing" textLength="36" x="490" y="1881.8594">20</text><text fill="#000000" font-family="sans-serif" font-size="26" lengthAdjust="spacing" textLength="8" x="534" y="1881.8594"> </text><!--SRC=[pPCnRzim48Lt_eghErjCbWu6rA8rsi13sXGfa9ccJXPXYMJ8entNo7ylIJckLIX0d7Oe9uB7T_Uz9ueKjGZNmgsHu2jkFImquSe9KaOp4SZeq2tHCRzMsWedEkZ4mpLwBrPugtuYlBkuE2akXLold0cwcflME82tsqOHCiPYdPHKLcY2oHsAbXgumoLyj7O2miCMby9QnfRc0IRpuCbq4mPn3OHT9ftgI9fLQSDGLn1b1srsSUFCHbNeHbfyYeZmhQwLnDnY9nfZVlSeoq4SPScI7mktii4gj36ArB4rna8T3QAG3TI8rQBAXRHwAp1zd_5cSFNv1t3PAjGq5LRnpILF1PvadkzxzUDHBYIfZI3ipS79IWUfRKQUGKDa_Opp-u1kTrdKIWijiSZLGfek3JeSSe_2oUR3VRd_dcu_3leU9_PPd9OSKd2QZMBqxkOn0Optl3NQ8_j3cBOnsvHlV0Hzb5Snt2_HT4wO_MLYusaD4TF0V58xqu5Cm6ESXsr67PA-Wl8ik1k7C3UwLglW3hcSp1tdMcXFBdHn-FavggEMx-EViKRtaZ3_vRDxviazypMU_i7SxNoxFSL_xV2Dqh8D5K9HS4-x5WiLkfRz0W00]--></g></svg>
